PathFileType	4	(X/Y/Z)	F:\MotionCapture\20160217\3\Generated_files\P_3_test01-Dynamic.trc
DataRate	CameraRate	NumFrames	NumMarkers	Units	OrigDataRate	OrigDataStartFrame	OrigNumFrames
120.00	120.00	      7	39	mm	120.00	1768	      2357
Frame#	Time	Top.Head			Front.Head			Rear.Head			R.Shoulder			R.Offset			R.Elbow			R.Wrist			L.Shoulder			L.Elbow			L.Wrist			R.ASIS			L.ASIS			V.Sacral			R.Thigh			R.Knee			R.Shank			R.Ankle			R.Heel			R.Toe			L.Thigh			L.Knee			L.Shank			L.Ankle			L.Heel			L.Toe			R1			R2			R3			R4			R5			R6			R7			L1			L2			L3			L4			L5			L6			L7			V_Mid_ASIS			V_Pelvis_Origin			V_R.Hip_JC			V_L.Hip_JC			V_R.Knee_JC			V_L.Knee_JC			V_R.Ankle_JC			V_L.Ankle_JC			V_Mid_Hip			V_Mid_Shoulder			V_R.Hand			V_L.Hand			V_R.Toe_Offset_Static			V_L.Toe_Offset_Static			V_R.Toe_Offset			V_L.Toe_Offset			
		X1	Y1	Z1	X2	Y2	Z2	X3	Y3	Z3	X4	Y4	Z4	X5	Y5	Z5	X6	Y6	Z6	X7	Y7	Z7	X8	Y8	Z8	X9	Y9	Z9	X10	Y10	Z10	X11	Y11	Z11	X12	Y12	Z12	X13	Y13	Z13	X14	Y14	Z14	X15	Y15	Z15	X16	Y16	Z16	X17	Y17	Z17	X18	Y18	Z18	X19	Y19	Z19	X20	Y20	Z20	X21	Y21	Z21	X22	Y22	Z22	X23	Y23	Z23	X24	Y24	Z24	X25	Y25	Z25	X26	Y26	Z26	X27	Y27	Z27	X28	Y28	Z28	X29	Y29	Z29	X30	Y30	Z30	X31	Y31	Z31	X32	Y32	Z32	X33	Y33	Z33	X34	Y34	Z34	X35	Y35	Z35	X36	Y36	Z36	X37	Y37	Z37	X38	Y38	Z38	X39	Y39	Z39	

1768	14.725	-150.91794	-9.76510	1666.40796	-85.90424	-9.87000	1542.71997	-278.79654	0.87558	1649.26550	-305.03690	-175.91843	1434.41028	-476.92227	76.32858	1306.08679	-109.16212	-297.74011	1217.55444	116.83934	-213.15059	1310.09729	-289.18280	186.67900	1443.15686	-94.67053	310.38684	1225.80200	121.74487	217.69232	1322.54480	-341.69656	-132.81375	940.96375	-321.26526	150.66196	943.93243	-554.84406	27.89334	947.58478	-268.54660	-119.47646	585.00061	-335.21570	-167.12880	465.84335	-320.30112	-101.02054	233.62363	-384.87671	-169.24464	70.17284	-441.27411	-99.17297	39.98875	-239.06989	-167.58636	39.65822	-250.90274	120.17913	634.79236	-315.13138	177.69023	467.88348	-302.31787	104.75202	323.99777	-377.34473	170.27606	61.04506	-440.06168	111.53538	41.20008	-237.90840	168.76422	39.77949	-192.45901	-149.69460	37.34351	-230.13307	-132.65245	47.17199	-322.48862	-87.30396	58.15752	-396.61484	-75.26409	43.10099	-417.94427	-146.69196	39.03413	-346.45352	-182.94147	32.98871	-281.74747	-206.69896	34.03465	-193.40822	144.14545	33.91076	-226.63811	131.74239	44.67206	-319.08414	84.51054	49.44243	-400.55197	81.09598	41.74949	-414.58612	151.56400	40.14686	-342.97745	184.87355	32.52006	-279.84976	200.90347	36.65264	
1769	14.733	-143.71300	-10.91694	1662.05518	-79.37326	-10.97683	1538.34790	-271.04874	-0.21110	1646.22888	-300.39182	-175.92245	1432.91870	-473.30060	75.81251	1306.82190	-106.00904	-298.32559	1215.22229	118.81978	-213.77205	1310.24402	-284.73090	185.11009	1442.13403	-92.47898	310.06668	1223.20593	122.71441	217.23091	1321.38196	-343.64484	-132.88681	940.05493	-323.37946	150.97247	942.95825	-557.14368	27.47284	947.90405	-268.97519	-120.16581	585.20813	-335.11963	-167.38495	465.58676	-319.82666	-100.77391	233.65823	-384.66214	-168.96751	70.38873	-441.10449	-99.12484	40.15852	-238.79622	-167.32513	39.49672	-251.40463	120.31545	635.16595	-313.97083	178.07954	467.82138	-301.38858	104.99068	323.62759	-377.40186	170.25969	61.10262	-439.80838	111.43199	41.43817	-237.75731	168.78560	39.73032	-192.56660	-149.11372	36.37733	-229.85219	-132.11862	46.70924	-322.50928	-87.09312	57.86958	-396.38974	-75.11677	43.14885	-417.69873	-146.51678	39.09540	-346.23972	-182.72888	33.12790	-281.62491	-206.70689	33.98173	-192.56874	144.18181	33.52016	-226.43040	131.73750	44.62090	-318.88040	84.55326	49.39209	-400.33063	81.02908	41.83446	-414.28760	151.44371	40.21241	-342.82208	184.75534	32.60089	-279.74905	201.02252	36.67183	
1770	14.742	-136.20578	-11.74896	1657.70056	-72.82091	-11.90646	1533.43201	-263.89621	-1.11670	1642.45654	-295.48608	-176.26382	1430.87769	-470.51447	74.82531	1307.07361	-102.78085	-298.58392	1212.45886	122.12119	-214.57903	1308.87219				-90.97469	309.70258	1220.23743	124.59857	216.50114	1318.69653	-345.33896	-132.41556	939.01929	-325.61423	151.17015	941.42523	-558.75018	27.44053	947.82697	-269.79498	-121.22591	584.88782	-334.68185	-167.70291	465.30685	-319.73749	-100.65046	233.70221	-384.64630	-168.78348	70.57958	-441.01108	-98.99751	40.29841	-238.66293	-167.14513	39.39202	-252.30435	120.45336	635.42444	-312.96576	178.18990	467.54724	-299.71182	105.20918	323.64987	-379.17343	171.38036	61.42957	-439.41568	111.33826	41.64513	-237.51601	168.90419	39.73378	-192.14572	-148.82497	36.29512	-229.58238	-131.93422	46.42257	-322.43304	-86.69763	57.55056	-396.28497	-74.90276	43.15096	-417.63284	-146.39778	39.20127	-346.26688	-182.51964	33.26450	-281.59503	-206.71284	33.96840	-191.97472	144.09763	33.24062	-226.06297	131.64244	44.53148	-318.50916	84.53537	49.17707	-399.81210	80.84160	41.97995	-413.91205	151.24437	40.46238	-342.56165	184.48061	32.64242	-279.68188	201.09412	36.70649																																																	-279.78555	183.53123	1440.59534	
1771	14.750	-128.49884	-13.04314	1653.06421	-66.16099	-13.02384	1528.04639	-256.78973	-2.19307	1638.82007	-291.06491	-176.63281	1429.06494	-467.19370	74.54101	1306.99927	-100.59026	-299.11481	1208.74548	124.23383	-215.84924	1306.61377				-89.64783	309.74249	1216.36523	125.37319	216.36996	1314.79626	-347.01978	-132.37364	937.81671	-327.75110	150.96107	940.24719	-561.34619	26.98637	947.77197	-269.88184	-121.87591	584.85919	-333.78674	-168.09625	465.03159	-319.59488	-100.64666	233.70262	-384.63925	-168.62227	70.74014	-440.98962	-98.79957	40.39400	-238.64278	-167.09586	39.31068	-252.58969	120.60169	635.83057	-311.69244	178.54321	467.36523	-299.02600	105.13261	323.55939	-379.20721	171.29030	61.56467	-439.20230	111.08296	41.66847	-237.31270	168.81433	39.70736	-191.83505	-148.53549	36.26004	-229.45168	-131.76634	46.21733	-322.33127	-86.46300	57.31961	-396.19550	-74.90802	43.18983	-417.56583	-146.32159	39.23007	-346.17429	-182.41675	33.30623	-281.53098	-206.73007	33.97400	-191.49944	143.96344	32.94658	-225.70911	131.54129	44.34721	-318.07153	84.35438	48.79033	-399.44501	80.67611	42.11193	-413.61826	151.15115	40.86541	-342.30545	184.21182	32.71642	-279.59171	201.07495	36.71408																																																	-274.74298	182.10249	1438.24268	
1772	14.758	-120.32174	-13.74640	1648.04834	-59.63898	-13.93471	1522.32593	-249.02603	-2.88322	1634.89929	-286.29730	-177.12053	1426.44421	-464.03128	73.87042	1306.94214	-98.05190	-299.89828	1204.08313	126.42597	-217.10191	1302.15710				-88.03794	309.25006	1211.22693	127.24703	215.97676	1309.04712	-348.70584	-132.13651	936.57526	-330.27856	151.14725	938.61438	-563.16260	26.98158	947.73419	-269.98624	-122.07239	584.85406	-333.06308	-168.45174	464.86856	-319.24649	-100.72384	233.74872	-384.69443	-168.69012	70.93425	-440.94763	-98.75480	40.47134	-238.53346	-167.09860	39.25598	-252.89537	120.64016	636.18256	-310.57162	179.02232	467.22205	-298.11121	105.32929	323.46844	-378.87979	170.99510	61.72160	-439.10812	110.73219	41.79831	-237.16267	168.79773	39.64844	-191.62430	-148.41422	36.17749	-229.27231	-131.56102	46.08895	-322.27673	-86.37798	57.19521	-396.20221	-74.88804	43.22779	-417.56021	-146.27565	39.35162	-346.14740	-182.34956	33.34422	-281.54831	-206.81563	33.93096	-191.20563	143.98477	32.82143	-225.32082	131.36488	44.16904	-317.63116	84.12029	48.36481	-399.15826	80.44307	42.14402	-413.46384	151.03291	41.14458	-342.20349	184.02515	32.79041	-279.38226	201.03949	36.74842																																																	-271.56323	180.36499	1436.24414	
1773	14.767	-113.11484	-14.84198	1642.56030	-53.19405	-15.03435	1516.40857	-241.35715	-4.13705	1630.53662	-281.23230	-177.85231	1423.85132	-461.14111	73.40405	1306.73535	-95.65635	-300.41196	1198.94360	129.23314	-218.37874	1296.88525				-87.32290	309.40137	1205.57825	128.13951	215.90283	1301.96863	-350.87683	-131.68405	934.62866	-332.26633	151.41264	936.80505	-565.43329	26.87956	947.61987	-270.06100	-122.05411	585.05664	-332.53766	-168.71477	464.83081	-318.95776	-100.73106	233.69064	-384.40512	-168.63747	70.78143	-440.91071	-98.67919	40.56031	-238.41710	-167.11105	39.15882	-253.09558	120.61919	636.38843	-309.69077	178.99203	466.98154	-297.27240	105.34507	323.29352	-378.65295	170.88455	61.83793	-438.93146	110.38158	41.96557	-237.08783	168.71231	39.62606	-191.36549	-148.31813	35.95755	-229.00017	-131.41330	45.96921	-322.19855	-86.32188	57.02731	-396.09760	-74.78061	43.13673	-417.50922	-146.16867	39.47464	-346.07333	-182.26903	33.40713	-281.53473	-206.89417	33.91068	-190.88205	144.00563	32.71404	-225.03430	131.27309	44.11182	-317.26202	83.83604	48.09061	-398.98148	80.29595	42.12893	-413.49832	150.86679	41.31422	-342.15408	183.83856	32.86819	-279.51318	201.20598	36.88704																																																	-266.32040	179.23093	1434.10132	
1774	14.775	-105.49722	-15.95688	1636.57336	-46.48751	-16.10143	1510.18982	-233.69482	-5.14125	1626.07446	-276.64545	-178.84998	1420.90320	-457.68259	72.77773	1306.34753	-93.74825	-301.15494	1192.65979	131.05661	-219.87021	1289.73877				-87.04247	309.44128	1199.21436	129.62108	215.70149	1293.16162	-352.91830	-131.47327	933.14825	-335.08255	151.31189	934.98218	-567.66840	26.55594	947.53406	-270.08221	-121.61995	585.27393	-332.00986	-168.99765	464.64398	-318.05063	-100.84320	233.53874	-384.34595	-168.63524	70.88829	-440.84402	-98.56368	40.59879	-238.31219	-167.16357	39.07089	-253.44781	120.68810	636.55920	-308.59866	179.18277	466.62900	-296.00714	105.26271	323.02481	-378.58173	170.61568	61.90780	-438.66382	110.12955	42.08631	-237.01186	168.65697	39.58748	-191.18018	-148.29060	35.77132	-228.80942	-131.26724	45.84427	-322.20041	-86.26158	56.88761	-395.99173	-74.73640	43.08455	-417.43781	-146.02943	39.54216	-345.95486	-182.15248	33.38478	-281.55289	-206.90912	33.89352	-190.60814	143.98584	32.63934	-224.87857	131.16861	44.04402	-317.14191	83.59972	47.97208	-399.00583	80.13121	42.11157	-413.39743	150.73589	41.44711	-342.16205	183.76659	32.92994	-279.36581	200.96179	36.74854																																																	-261.16537	177.60512	1430.01831	
